<svg width="81" height="80" viewBox="0 0 81 80" fill="none" xmlns="http://www.w3.org/2000/svg">
<g clip-path="url(#clip0_3449_30417)">
<path d="M53.6685 0H26.9994C12.2725 0 0.333984 11.9385 0.333984 26.6655V53.3345C0.333984 68.0615 12.2725 80 26.9994 80H53.6685C68.3955 80 80.334 68.0615 80.334 53.3345V26.6655C80.334 11.9385 68.3955 0 53.6685 0Z" fill="#F9D2C0"/>
<path d="M49.2538 61.9548H31.3665C28.8174 61.9548 26.752 59.8893 26.752 57.3402V29.082H53.8683V57.3402C53.8683 59.8893 51.8029 61.9548 49.2538 61.9548Z" fill="white"/>
<path d="M20.1602 26.0618V32.1018C20.1602 33.9672 21.6729 35.48 23.5383 35.48H26.7529V29.08H53.8692V35.48H57.0838C58.9492 35.48 60.462 33.9672 60.462 32.1018V26.0618C60.462 24.1963 58.9492 22.6836 57.0838 22.6836H23.5383C21.6729 22.6836 20.1602 24.1963 20.1602 26.0618Z" fill="#EF6250"/>
<path d="M36.2695 50.8086H33.0077C32.106 50.8086 31.375 51.5396 31.375 52.4413V55.7031C31.375 56.6049 32.106 57.3359 33.0077 57.3359H36.2695C37.1713 57.3359 37.9023 56.6049 37.9023 55.7031V52.4413C37.9023 51.5396 37.1713 50.8086 36.2695 50.8086Z" fill="#EF6250"/>
<path d="M49.2473 29.082H44.2109V61.9548H49.2473V29.082Z" fill="#EAEAEA"/>
</g>
<defs>
<clipPath id="clip0_3449_30417">
<rect width="80" height="80" fill="white" transform="translate(0.333984)"/>
</clipPath>
</defs>
</svg>
