<svg width="80" height="80" viewBox="0 0 80 80" fill="none" xmlns="http://www.w3.org/2000/svg">
<g clip-path="url(#clip0_3449_37084)">
<path d="M53.3345 0H26.6655C11.9385 0 0 11.9385 0 26.6655V53.3345C0 68.0615 11.9385 80 26.6655 80H53.3345C68.0615 80 80 68.0615 80 53.3345V26.6655C80 11.9385 68.0615 0 53.3345 0Z" fill="#F9D2C0"/>
<path d="M59.3514 50.8613C65.4578 44.7549 65.4578 34.8545 59.3514 28.7481C53.245 22.6417 43.3446 22.6417 37.2382 28.7481C31.1318 34.8545 31.1318 44.7549 37.2382 50.8613C43.3446 56.9676 53.245 56.9676 59.3514 50.8613Z" fill="white"/>
<path d="M50.7791 50.8613C56.8855 44.7549 56.8855 34.8545 50.7791 28.7481C44.6727 22.6417 34.7723 22.6417 28.666 28.7481C22.5596 34.8545 22.5596 44.7549 28.666 50.8613C34.7723 56.9676 44.6727 56.9676 50.7791 50.8613Z" fill="#F7A689"/>
<path d="M46.5844 42.3223C47.9741 33.7991 42.1912 25.7632 33.668 24.3736C25.1448 22.984 17.1089 28.7669 15.7192 37.2901C14.3296 45.8132 20.1125 53.8492 28.6357 55.2388C37.1589 56.6284 45.1948 50.8455 46.5844 42.3223Z" fill="#EF6250"/>
<path d="M33.5536 46.8243C33.5318 46.8243 33.51 46.8243 33.4882 46.8243C32.8482 46.7952 32.3064 46.3516 32.1464 45.7334L31.15 41.8607L30.1536 45.7334C29.9936 46.3516 29.4482 46.7952 28.8118 46.8243C28.1645 46.8571 27.59 46.4607 27.3754 45.8607L23.95 36.2789C23.6809 35.5225 24.0736 34.6898 24.83 34.4207C25.5864 34.1516 26.4191 34.5443 26.6882 35.3007L28.5173 40.4171L29.7427 35.6643C29.9064 35.0207 30.4882 34.5734 31.15 34.5734C31.8118 34.5734 32.3936 35.0243 32.5573 35.6643L33.7827 40.4171L35.6118 35.3007C35.8809 34.5443 36.7136 34.1516 37.47 34.4207C38.2263 34.6898 38.6191 35.5225 38.35 36.2789L34.9245 45.8607C34.7173 46.4425 34.1682 46.8243 33.5536 46.8243Z" fill="white"/>
<path d="M26.6474 40.9677H23.6401C22.8365 40.9677 22.1855 40.3168 22.1855 39.5131C22.1855 38.7095 22.8365 38.0586 23.6401 38.0586H26.6474C27.451 38.0586 28.1019 38.7095 28.1019 39.5131C28.1019 40.3168 27.451 40.9677 26.6474 40.9677Z" fill="white"/>
<path d="M38.6552 40.9677H35.6479C34.8443 40.9677 34.1934 40.3168 34.1934 39.5131C34.1934 38.7095 34.8443 38.0586 35.6479 38.0586H38.6552C39.4588 38.0586 40.1097 38.7095 40.1097 39.5131C40.1097 40.3168 39.4588 40.9677 38.6552 40.9677Z" fill="white"/>
</g>
<defs>
<clipPath id="clip0_3449_37084">
<rect width="80" height="80" fill="white"/>
</clipPath>
</defs>
</svg>
