<svg width="81" height="80" viewBox="0 0 81 80" fill="none" xmlns="http://www.w3.org/2000/svg">
<g clip-path="url(#clip0_3449_34438)">
<path d="M53.6685 0H26.9994C12.2725 0 0.333984 11.9385 0.333984 26.6655V53.3345C0.333984 68.0615 12.2725 80 26.9994 80H53.6685C68.3955 80 80.334 68.0615 80.334 53.3345V26.6655C80.334 11.9385 68.3955 0 53.6685 0Z" fill="#F9EDBD"/>
<path d="M53.9668 20.9609H27.145C23.9076 20.9609 21.2832 23.5854 21.2832 26.8228V53.6446C21.2832 56.882 23.9076 59.5064 27.145 59.5064H53.9668C57.2042 59.5064 59.8287 56.882 59.8287 53.6446V26.8228C59.8287 23.5854 57.2042 20.9609 53.9668 20.9609Z" fill="white"/>
<path d="M40.5566 28.2344C33.9275 28.2344 28.5566 33.6053 28.5566 40.2344C28.5566 46.8635 33.9275 52.2344 40.5566 52.2344C47.1857 52.2344 52.5566 46.8635 52.5566 40.2344C52.5566 33.6053 47.1857 28.2344 40.5566 28.2344ZM40.5566 45.0344C37.9057 45.0344 35.753 42.8853 35.753 40.2307C35.753 37.5762 37.9021 35.4271 40.5566 35.4271C43.2112 35.4271 45.3603 37.5762 45.3603 40.2307C45.3603 42.8853 43.2112 45.0344 40.5566 45.0344Z" fill="#FFD255"/>
<path d="M45.0411 41.9453C44.6521 42.9671 43.9248 43.8217 42.9902 44.3708L46.6375 50.5671C48.9648 49.1926 50.783 47.0617 51.7575 44.5053L45.0375 41.9453H45.0411Z" fill="#EF6250"/>
<path d="M40.5566 28.2344V35.4307C43.2075 35.4307 45.3603 37.5798 45.3603 40.2344C45.3603 40.838 45.2439 41.4126 45.0403 41.9435L51.7603 44.5035C52.2657 43.1762 52.5566 41.7398 52.5566 40.2344C52.5566 33.6053 47.1857 28.2344 40.5566 28.2344Z" fill="#FFA943"/>
</g>
<defs>
<clipPath id="clip0_3449_34438">
<rect width="80" height="80" fill="white" transform="translate(0.333984)"/>
</clipPath>
</defs>
</svg>
