<svg width="81" height="80" viewBox="0 0 81 80" fill="none" xmlns="http://www.w3.org/2000/svg">
<g clip-path="url(#clip0_3449_31401)">
<path d="M54.0006 0H27.3315C12.6045 0 0.666016 11.9385 0.666016 26.6655V53.3345C0.666016 68.0615 12.6045 80 27.3315 80H54.0006C68.7275 80 80.666 68.0615 80.666 53.3345V26.6655C80.666 11.9385 68.7275 0 54.0006 0Z" fill="#F9EDBD"/>
<path d="M53.9161 20.7266H27.0942C23.8568 20.7266 21.2324 23.351 21.2324 26.5884V53.4102C21.2324 56.6476 23.8568 59.272 27.0942 59.272H53.9161C57.1535 59.272 59.7779 56.6476 59.7779 53.4102V26.5884C59.7779 23.351 57.1535 20.7266 53.9161 20.7266Z" fill="white"/>
<path d="M27.0942 20.7266H53.9161C57.1524 20.7266 59.7779 23.352 59.7779 26.5884V31.9993H21.2324V26.5884C21.2324 23.352 23.8579 20.7266 27.0942 20.7266Z" fill="#FFA943"/>
<path d="M39.5304 26.6031C39.5304 27.5522 38.7631 28.3194 37.814 28.3194C36.8649 28.3194 36.0977 27.5522 36.0977 26.6031C36.0977 25.654 36.8649 24.8867 37.814 24.8867C38.7631 24.8867 39.5304 25.6576 39.5304 26.6031Z" fill="#F9EDBD"/>
<path d="M32.4371 28.3194C33.385 28.3194 34.1534 27.551 34.1534 26.6031C34.1534 25.6552 33.385 24.8867 32.4371 24.8867C31.4891 24.8867 30.7207 25.6552 30.7207 26.6031C30.7207 27.551 31.4891 28.3194 32.4371 28.3194Z" fill="#F9EDBD"/>
<path d="M28.7745 26.6031C28.7745 27.5522 28.0073 28.3194 27.0582 28.3194C26.1091 28.3194 25.3418 27.5522 25.3418 26.6031C25.3418 25.654 26.1127 24.8867 27.0582 24.8867C28.0036 24.8867 28.7745 25.6576 28.7745 26.6031Z" fill="#F9EDBD"/>
<path d="M39.6178 52.6145C35.1378 52.6145 31.4941 48.9708 31.4941 44.4908C31.4941 40.0108 35.1378 36.3672 39.6178 36.3672C44.0978 36.3672 47.7414 40.0108 47.7414 44.4908C47.7414 48.9708 44.0978 52.6145 39.6178 52.6145ZM39.6178 39.2726C36.7414 39.2726 34.4032 41.6108 34.4032 44.4872C34.4032 47.3635 36.7414 49.7017 39.6178 49.7017C42.4941 49.7017 44.8323 47.3635 44.8323 44.4872C44.8323 41.6108 42.4941 39.2726 39.6178 39.2726Z" fill="#FFD255"/>
<path d="M49.5091 55.8524C49.1382 55.8524 48.7637 55.7105 48.4801 55.4269L43.2946 50.2415C42.7273 49.6742 42.7273 48.7542 43.2946 48.1833C43.8619 47.616 44.7819 47.616 45.3528 48.1833L50.5382 53.3687C51.1055 53.936 51.1055 54.856 50.5382 55.4269C50.2546 55.7105 49.8837 55.8524 49.5091 55.8524Z" fill="#FFD255"/>
</g>
<defs>
<clipPath id="clip0_3449_31401">
<rect width="80" height="80" fill="white" transform="translate(0.666016)"/>
</clipPath>
</defs>
</svg>
