<svg width="80" height="80" viewBox="0 0 80 80" fill="none" xmlns="http://www.w3.org/2000/svg">
<g clip-path="url(#clip0_3449_31465)">
<path d="M53.3345 0H26.6655C11.9385 0 0 11.9385 0 26.6655V53.3345C0 68.0615 11.9385 80 26.6655 80H53.3345C68.0615 80 80 68.0615 80 53.3345V26.6655C80 11.9385 68.0615 0 53.3345 0Z" fill="#DCEFE8"/>
<path d="M55.3359 34.6717V50.7845C55.3359 52.0535 54.6595 53.2245 53.5613 53.8608L41.4013 60.8826C40.3032 61.519 38.9468 61.519 37.8486 60.8826L25.6886 53.8608C24.5904 53.2281 23.9141 52.0535 23.9141 50.7845V34.6717L39.7359 25.6172L55.3395 34.6717H55.3359Z" fill="white"/>
<path d="M23.9102 34.672L39.6229 43.7447L55.3356 34.672L39.732 25.6211L23.9102 34.672Z" fill="#BEE5D5"/>
<path d="M39.6517 25.6195L23.8299 34.6741L17.2808 31.005C16.1026 30.3468 16.0953 28.6559 17.2662 27.9868L28.7862 21.3941C29.8044 20.8123 31.0553 20.805 32.0808 21.3795L39.6517 25.6195Z" fill="#27C590"/>
<path d="M39.6523 25.6195L55.4742 34.6741L62.0233 31.005C63.2014 30.3468 63.2087 28.6559 62.0378 27.9868L50.5178 21.3941C49.4996 20.8123 48.2487 20.805 47.2233 21.3795L39.6523 25.6195Z" fill="#27C590"/>
<path d="M17.5274 40.9488L28.5056 47.4542C29.5893 48.0979 30.9274 48.1451 32.0547 47.5815L39.7165 43.7524L23.8765 34.6797L17.6147 37.9124C16.4038 38.5379 16.3529 40.2506 17.5274 40.9451V40.9488Z" fill="#27C590"/>
<path d="M61.7789 40.9488L50.8008 47.4542C49.7171 48.0979 48.3789 48.1451 47.2517 47.5815L39.5898 43.7524L55.4298 34.6797L61.6917 37.9124C62.9026 38.5379 62.9535 40.2506 61.7789 40.9451V40.9488Z" fill="#27C590"/>
<path d="M39.6518 57.9475C38.8482 57.9475 38.1973 57.2966 38.1973 56.4929V48.4311C38.1973 47.6275 38.8482 46.9766 39.6518 46.9766C40.4554 46.9766 41.1064 47.6275 41.1064 48.4311V56.4929C41.1064 57.2966 40.4554 57.9475 39.6518 57.9475Z" fill="#DCEFE8"/>
</g>
<defs>
<clipPath id="clip0_3449_31465">
<rect width="80" height="80" fill="white"/>
</clipPath>
</defs>
</svg>
