<svg width="80" height="80" viewBox="0 0 80 80" fill="none" xmlns="http://www.w3.org/2000/svg">
<g clip-path="url(#clip0_3449_30456)">
<path d="M53.3345 0H26.6655C11.9385 0 0 11.9385 0 26.6655V53.3345C0 68.0615 11.9385 80 26.6655 80H53.3345C68.0615 80 80 68.0615 80 53.3345V26.6655C80 11.9385 68.0615 0 53.3345 0Z" fill="#E1E0F9"/>
<path d="M37.0224 53.8906C38.1533 53.5815 39.2879 53.9997 39.9824 54.8506C40.3642 55.316 41.0406 55.3997 41.5606 55.0979C42.8006 54.3815 43.9206 53.5088 44.8988 52.5124C45.3206 52.0833 45.4042 51.407 45.0479 50.9233C44.3969 50.0397 44.2733 48.8324 44.8515 47.8142C45.4333 46.7961 46.5315 46.287 47.626 46.3997C48.2224 46.4615 48.7642 46.0397 48.917 45.4615C49.277 44.1088 49.4551 42.7015 49.4406 41.2724C49.4333 40.6724 49.0188 40.1306 48.426 40.0397C47.3388 39.8724 46.4006 39.1088 46.0915 37.9815C45.7824 36.8506 46.2006 35.716 47.0479 35.0215C47.5133 34.6397 47.5969 33.9633 47.2951 33.4433C46.5788 32.2033 45.706 31.0833 44.7097 30.1051C44.2806 29.6833 43.6042 29.5997 43.1206 29.956C42.237 30.607 41.0297 30.7306 40.0115 30.1524C38.9933 29.5706 38.4842 28.4724 38.597 27.3779C38.6588 26.7815 38.237 26.2397 37.6588 26.087C36.306 25.727 34.8988 25.5488 33.4697 25.5633C32.8697 25.5706 32.3279 25.9851 32.237 26.5779C32.0697 27.6651 31.306 28.6033 30.1788 28.9124C29.0479 29.2215 27.9133 28.8033 27.2188 27.956C26.837 27.4906 26.1606 27.407 25.6406 27.7088C24.4006 28.4251 23.2806 29.2979 22.3024 30.2942C21.8806 30.7233 21.797 31.3997 22.1533 31.8833C22.8042 32.767 22.9279 33.9742 22.3497 34.9924C21.7679 36.0106 20.6697 36.5197 19.5751 36.407C18.9788 36.3488 18.437 36.767 18.2842 37.3451C17.9242 38.6979 17.746 40.1051 17.7606 41.5379C17.7679 42.1379 18.1824 42.6797 18.7751 42.7706C19.8624 42.9379 20.8006 43.7015 21.1097 44.8288C21.4188 45.9597 21.0006 47.0942 20.1497 47.7888C19.6842 48.1706 19.6006 48.847 19.9024 49.367C20.6188 50.607 21.4915 51.727 22.4879 52.7051C22.917 53.127 23.5933 53.2106 24.077 52.8542C24.9606 52.2033 26.1679 52.0797 27.186 52.6579C28.2042 53.2397 28.7133 54.3379 28.6006 55.4324C28.5424 56.0288 28.9606 56.5706 29.5388 56.7233C30.8915 57.0833 32.2988 57.2615 33.7279 57.247C34.3279 57.2397 34.8697 56.8251 34.9606 56.2324C35.1279 55.1451 35.8915 54.207 37.0188 53.8979L37.0224 53.8906ZM28.9024 43.3706C27.6151 40.2651 29.5788 36.8215 32.906 36.3451C35.1715 36.0215 37.426 37.3051 38.3024 39.4215C39.5897 42.527 37.626 45.9706 34.2988 46.447C32.0333 46.7706 29.7788 45.487 28.9024 43.3706Z" fill="#7860F5"/>
<path d="M60.9468 46.9063C60.9468 46.1791 61.365 45.5609 61.9686 45.2518C62.3832 45.0409 62.5686 44.55 62.445 44.1027C62.2232 43.31 61.9105 42.5572 61.5141 41.8518C61.2777 41.43 60.7832 41.2518 60.3214 41.39C59.685 41.5827 58.9723 41.4336 58.4705 40.9282C57.965 40.4227 57.8195 39.7136 58.0086 39.0772C58.1468 38.6154 57.9686 38.1209 57.5468 37.8845C56.845 37.4918 56.0886 37.1754 55.2959 36.9536C54.8486 36.8263 54.3577 37.0118 54.1468 37.43C53.8377 38.0372 53.2195 38.4518 52.4923 38.4518C51.765 38.4518 51.1468 38.0336 50.8377 37.43C50.6268 37.0154 50.1359 36.83 49.6886 36.9536C48.8959 37.1754 48.1432 37.4882 47.4377 37.8845C47.0159 38.1209 46.8377 38.6154 46.9759 39.0772C47.1686 39.7136 47.0195 40.4263 46.5141 40.9282C46.0086 41.4336 45.2995 41.5791 44.6632 41.39C44.2014 41.2518 43.7068 41.43 43.4705 41.8518C43.0777 42.5536 42.7614 43.31 42.5395 44.1027C42.4123 44.55 42.5977 45.0409 43.0159 45.2518C43.6232 45.5609 44.0377 46.1791 44.0377 46.9063C44.0377 47.6336 43.6195 48.2518 43.0159 48.5609C42.6014 48.7718 42.4159 49.2627 42.5395 49.71C42.7614 50.5027 43.0741 51.2554 43.4705 51.9609C43.7068 52.3827 44.2014 52.5609 44.6632 52.4227C45.2995 52.23 46.0123 52.3791 46.5141 52.8845C47.0195 53.39 47.165 54.0991 46.9759 54.7354C46.8377 55.1972 47.0159 55.6918 47.4377 55.9282C48.1395 56.3209 48.8959 56.6372 49.6886 56.8591C50.1359 56.9863 50.6268 56.8009 50.8377 56.3827C51.1468 55.7754 51.765 55.3609 52.4923 55.3609C53.2195 55.3609 53.8377 55.7791 54.1468 56.3827C54.3577 56.7972 54.8486 56.9827 55.2959 56.8591C56.0886 56.6372 56.8414 56.3245 57.5468 55.9282C57.9686 55.6918 58.1468 55.1972 58.0086 54.7354C57.8159 54.0991 57.965 53.3863 58.4705 52.8845C58.9759 52.3791 59.685 52.2336 60.3214 52.4227C60.7832 52.5609 61.2777 52.3827 61.5141 51.9609C61.9068 51.2591 62.2232 50.5027 62.445 49.71C62.5723 49.2627 62.3868 48.7718 61.9686 48.5609C61.3614 48.2518 60.9468 47.6336 60.9468 46.9063ZM53.0559 50.1827C50.7795 50.5572 48.8414 48.6154 49.2123 46.3391C49.4377 44.9609 50.5505 43.8482 51.9286 43.6227C54.205 43.2482 56.1432 45.19 55.7723 47.4663C55.5468 48.8445 54.4341 49.9572 53.0559 50.1827Z" fill="white"/>
<path d="M59.2808 24.9967C59.2808 24.4331 59.6044 23.9531 60.0735 23.7131C60.3972 23.5495 60.539 23.1676 60.4408 22.8186C60.2699 22.204 60.0263 21.6186 59.7208 21.0731C59.539 20.7458 59.1535 20.6076 58.7935 20.7131C58.299 20.8622 57.7463 20.7458 57.3572 20.3567C56.9644 19.964 56.8517 19.4149 57.0008 18.9204C57.1099 18.5604 56.9681 18.1786 56.6408 17.9967C56.0953 17.6913 55.5099 17.4476 54.8954 17.2767C54.5463 17.1786 54.1681 17.324 54.0008 17.644C53.7608 18.1131 53.2808 18.4367 52.7172 18.4367C52.1535 18.4367 51.6735 18.1131 51.4335 17.644C51.2699 17.3204 50.8881 17.1786 50.539 17.2767C49.9244 17.4476 49.339 17.6913 48.7935 17.9967C48.4663 18.1786 48.3281 18.564 48.4335 18.924C48.5826 19.4186 48.4663 19.9713 48.0772 20.3604C47.6844 20.7531 47.1353 20.8658 46.6408 20.7167C46.2808 20.6076 45.899 20.7495 45.7135 21.0767C45.4081 21.6222 45.1644 22.2076 44.9935 22.8222C44.8954 23.1713 45.0408 23.5495 45.3608 23.7167C45.8299 23.9567 46.1535 24.4367 46.1535 25.0004C46.1535 25.564 45.8299 26.044 45.3608 26.284C45.0372 26.4476 44.8954 26.8295 44.9935 27.1786C45.1644 27.7931 45.4081 28.3786 45.7135 28.924C45.8953 29.2513 46.2808 29.3895 46.6372 29.284C47.1317 29.1349 47.6844 29.2513 48.0735 29.6404C48.4663 30.0331 48.579 30.5822 48.4299 31.0767C48.3208 31.4367 48.4626 31.8186 48.7899 32.0004C49.3353 32.3058 49.9208 32.5495 50.5353 32.7204C50.8844 32.8186 51.2626 32.6731 51.4299 32.3531C51.6699 31.884 52.1499 31.5604 52.7135 31.5604C53.2772 31.5604 53.7572 31.884 53.9972 32.3531C54.1608 32.6767 54.5426 32.8186 54.8917 32.7204C55.5063 32.5495 56.0917 32.3058 56.6372 32.0004C56.9644 31.8186 57.1026 31.4331 56.9972 31.0767C56.8481 30.5822 56.9644 30.0295 57.3535 29.6404C57.7463 29.2476 58.2953 29.1349 58.7899 29.284C59.1499 29.3931 59.5317 29.2513 59.7172 28.924C60.0226 28.3786 60.2663 27.7931 60.4372 27.1786C60.5353 26.8295 60.3899 26.4513 60.0699 26.284C59.6008 26.044 59.2772 25.564 59.2772 25.0004L59.2808 24.9967ZM53.1535 27.5386C51.3863 27.8295 49.8808 26.324 50.1717 24.5567C50.3463 23.4876 51.2117 22.6258 52.2808 22.4476C54.0481 22.1567 55.5535 23.6622 55.2626 25.4295C55.0881 26.4986 54.2226 27.3604 53.1535 27.5386Z" fill="#B3B3E0"/>
</g>
<defs>
<clipPath id="clip0_3449_30456">
<rect width="80" height="80" fill="white"/>
</clipPath>
</defs>
</svg>
