<svg width="81" height="80" viewBox="0 0 81 80" fill="none" xmlns="http://www.w3.org/2000/svg">
<g clip-path="url(#clip0_3449_27580)">
<path d="M54.0006 0H27.3315C12.6045 0 0.666016 11.9385 0.666016 26.6655V53.3345C0.666016 68.0615 12.6045 80 27.3315 80H54.0006C68.7275 80 80.666 68.0615 80.666 53.3345V26.6655C80.666 11.9385 68.7275 0 54.0006 0Z" fill="#F9EDBD"/>
<g clip-path="url(#clip1_3449_27580)">
<path d="M40.8752 16H40.4568C27.3158 16 16.666 20.0038 16.666 36.7162V37.0781C16.666 51.1771 24.3757 56.2781 34.7706 57.4857C35.6492 57.5886 36.4289 58.099 36.8663 58.8724L39.3386 63.2267C39.9243 64.259 41.4115 64.259 41.9972 63.2267L44.4657 58.88C44.9031 58.1067 45.6866 57.5924 46.569 57.4933C56.9602 56.3124 64.6698 51.2952 64.6698 37.0781V36.7162C64.666 19.8667 54.0125 16 40.8752 16Z" fill="#FFD255"/>
<path d="M32.2911 33.9021C31.1349 33.9021 30.1992 32.965 30.1992 31.8069V30.1421C30.1992 28.984 31.1349 28.0469 32.2911 28.0469C33.4474 28.0469 34.3831 28.984 34.3831 30.1421V31.8069C34.3831 32.965 33.4474 33.9021 32.2911 33.9021Z" fill="white"/>
<path d="M49.9435 33.9021C48.7872 33.9021 47.8516 32.965 47.8516 31.8069V30.1421C47.8516 28.984 48.7872 28.0469 49.9435 28.0469C51.0997 28.0469 52.0354 28.984 52.0354 30.1421V31.8069C52.0354 32.965 51.0997 33.9021 49.9435 33.9021Z" fill="white"/>
<path d="M40.1867 40.5041C39.7341 40.5041 39.2814 40.3441 38.9163 40.0165L37.0602 38.3518C36.5582 37.9022 36.3299 37.2165 36.4669 36.5537C36.6 35.8908 37.0754 35.3499 37.7144 35.1327C38.4827 34.8699 38.6615 33.3956 38.6691 33.0146C38.6843 31.9746 39.5325 31.1289 40.5708 31.1289H40.586C41.632 31.1365 42.4726 31.9784 42.4726 33.026C42.4726 34.0737 42.1759 35.7041 41.2517 36.9956L41.457 37.1784C42.2406 37.8794 42.3052 39.0832 41.6054 39.868C41.2288 40.287 40.7116 40.5003 40.1905 40.5003L40.1867 40.5041Z" fill="white"/>
<path d="M41.4727 47.5328C38.3196 47.5328 35.5925 46.6223 35.4175 46.5614C34.4248 46.2223 33.8923 45.1404 34.2308 44.1461C34.5693 43.1518 35.6457 42.6185 36.6422 42.9575C38.0495 43.4299 42.2752 44.3747 44.8996 43.0566C45.8391 42.588 46.9801 42.969 47.4517 43.9099C47.9196 44.8509 47.5392 45.9937 46.5998 46.4661C44.9909 47.2699 43.169 47.5366 41.4727 47.5366V47.5328Z" fill="white"/>
</g>
</g>
<defs>
<clipPath id="clip0_3449_27580">
<rect width="80" height="80" fill="white" transform="translate(0.666016)"/>
</clipPath>
<clipPath id="clip1_3449_27580">
<rect width="48" height="48" fill="white" transform="translate(16.666 16)"/>
</clipPath>
</defs>
</svg>
