<svg width="81" height="80" viewBox="0 0 81 80" fill="none" xmlns="http://www.w3.org/2000/svg">
<g clip-path="url(#clip0_3449_27538)">
<path d="M53.6685 0H26.9994C12.2725 0 0.333984 11.9385 0.333984 26.6655V53.3345C0.333984 68.0615 12.2725 80 26.9994 80H53.6685C68.3955 80 80.334 68.0615 80.334 53.3345V26.6655C80.334 11.9385 68.3955 0 53.6685 0Z" fill="#E1E0F9"/>
<path d="M40.5307 17.6445H40.1525C28.2071 17.6445 18.5234 21.8263 18.5234 39.2736V39.6518C18.5234 56.9573 28.2071 61.2809 40.1525 61.2809H40.5307C52.4762 61.2809 62.1598 57.0991 62.1598 39.6518V39.2736C62.1598 21.6845 52.4762 17.6445 40.5307 17.6445Z" fill="#7860F5"/>
<path d="M45.3305 38.4C44.4941 38.4 43.8141 37.72 43.8141 36.8836V33.5055C43.8141 31.5891 42.2578 30.0327 40.3414 30.0327C38.425 30.0327 36.8687 31.5891 36.8687 33.5055V36.8836C36.8687 37.72 36.1887 38.4 35.3523 38.4C34.5159 38.4 33.8359 37.72 33.8359 36.8836V33.5055C33.8359 29.9164 36.7559 27 40.3414 27C43.9268 27 46.8468 29.92 46.8468 33.5055V36.8836C46.8468 37.72 46.1668 38.4 45.3305 38.4Z" fill="#D3D3F2"/>
<path d="M34.1088 35.9766H46.5743C48.3524 35.9766 49.7961 37.4202 49.7961 39.1984V43.7729C49.7961 48.0275 46.3415 51.482 42.087 51.482H38.5997C34.3452 51.482 30.8906 48.0275 30.8906 43.7729V39.1984C30.8906 37.4202 32.3343 35.9766 34.1124 35.9766H34.1088Z" fill="white"/>
<path d="M42.2364 43.7305C42.2364 44.7778 41.3891 45.625 40.3418 45.625C39.2945 45.625 38.4473 44.7778 38.4473 43.7305C38.4473 42.6832 39.2945 41.8359 40.3418 41.8359C41.3891 41.8359 42.2364 42.6832 42.2364 43.7305Z" fill="#7860F5"/>
</g>
<defs>
<clipPath id="clip0_3449_27538">
<rect width="80" height="80" fill="white" transform="translate(0.333984)"/>
</clipPath>
</defs>
</svg>
